<?xml version="1.0" encoding="UTF-8" standalone="no"?>
<!-- Created with Inkscape (http://www.inkscape.org/) -->

<svg
   xmlns:osb="http://www.openswatchbook.org/uri/2009/osb"
   xmlns:dc="http://purl.org/dc/elements/1.1/"
   xmlns:cc="http://creativecommons.org/ns#"
   xmlns:rdf="http://www.w3.org/1999/02/22-rdf-syntax-ns#"
   xmlns:svg="http://www.w3.org/2000/svg"
   xmlns="http://www.w3.org/2000/svg"
   xmlns:xlink="http://www.w3.org/1999/xlink"
   xmlns:sodipodi="http://sodipodi.sourceforge.net/DTD/sodipodi-0.dtd"
   xmlns:inkscape="http://www.inkscape.org/namespaces/inkscape"
   width="16px"
   height="16px"
   viewBox="0 0 16 16"
   version="1.1"
   id="SVGRoot"
   inkscape:version="0.92.4 (5da689c313, 2019-01-14)"
   sodipodi:docname="6.svg">
  <defs
     id="defs3721">
    <linearGradient
       id="linearGradient4551"
       osb:paint="solid">
      <stop
         style="stop-color:#000000;stop-opacity:1;"
         offset="0"
         id="stop4549" />
    </linearGradient>
    <linearGradient
       inkscape:collect="always"
       xlink:href="#linearGradient4551"
       id="linearGradient4553"
       x1="0.625"
       y1="8.03125"
       x2="15.5"
       y2="8.03125"
       gradientUnits="userSpaceOnUse" />
  </defs>
  <sodipodi:namedview
     id="base"
     pagecolor="#ffffff"
     bordercolor="#666666"
     borderopacity="1.0"
     inkscape:pageopacity="0.0"
     inkscape:pageshadow="2"
     inkscape:zoom="16"
     inkscape:cx="8"
     inkscape:cy="8"
     inkscape:document-units="px"
     inkscape:current-layer="layer1"
     showgrid="false"
     inkscape:window-width="1680"
     inkscape:window-height="987"
     inkscape:window-x="-8"
     inkscape:window-y="-8"
     inkscape:window-maximized="1"
     inkscape:grid-bbox="true" />
  <metadata
     id="metadata3724">
    <rdf:RDF>
      <cc:Work
         rdf:about="">
        <dc:format>image/svg+xml</dc:format>
        <dc:type
           rdf:resource="http://purl.org/dc/dcmitype/StillImage" />
        <dc:title></dc:title>
      </cc:Work>
    </rdf:RDF>
  </metadata>
  <g
     inkscape:label="Layer 1"
     inkscape:groupmode="layer"
     id="layer1">
    <rect
       style="opacity:0;fill:#ffffff;stroke:#000000"
       id="rect3736"
       width="14.875"
       height="14.9375"
       x="0.625"
       y="0.5625"
       ry="0.4375" />
    <rect
       style="opacity:0;fill:#ffffff;stroke:#000000"
       id="rect3738"
       width="5.75"
       height="1.0625"
       x="0.625"
       y="0.5625"
       ry="0.4375" />
    <rect
       style="fill:none;fill-rule:evenodd;stroke:url(#linearGradient4553)"
       id="rect3742"
       width="14.875"
       height="14.9375"
       x="0.5"
       y="0.625"
       ry="2.3125" />
    <ellipse
       style="opacity:0;fill:#000000;stroke:#000000;fill-opacity:1"
       id="path4555"
       cx="7.875"
       cy="7.96875"
       rx="1.3125"
       ry="1.21875" />
    <ellipse
       style="opacity:0;fill:#000000;fill-opacity:1;stroke:#000000"
       id="path4557"
       cx="7.5625"
       cy="7.46875"
       rx="1.375"
       ry="0.96875" />
    <ellipse
       style="opacity:0;fill:#000000;fill-opacity:1;stroke:#000000"
       id="path4559"
       cx="-7.96875"
       cy="8.375"
       rx="3.09375"
       ry="2.1875" />
    <path
       style="opacity:0.82399998;fill:#000000;fill-opacity:1;stroke:#000000;stroke-width:1.36144102"
       id="path4561"
       sodipodi:type="arc"
       sodipodi:cx="11.794054"
       sodipodi:cy="4.1274233"
       sodipodi:rx="1.0944741"
       sodipodi:ry="1.2403764"
       sodipodi:start="0.014717413"
       sodipodi:end="6.2822674"
       d="m 12.88841,4.1456778 a 1.0944741,1.2403764 0 0 1 -1.106185,1.2220494 1.0944741,1.2403764 0 0 1 -1.082619,-1.2488621 1.0944741,1.2403764 0 0 1 1.097722,-1.2318126 1.0944741,1.2403764 0 0 1 1.0912,1.2392322 l -1.094474,0.00114 z" />
    <path
       style="opacity:0.82399998;fill:#000000;fill-opacity:1;stroke:#000000;stroke-width:1.36144102"
       id="path4561-7"
       sodipodi:type="arc"
       sodipodi:cx="3.9331837"
       sodipodi:cy="3.8749981"
       sodipodi:rx="1.0944741"
       sodipodi:ry="1.2403764"
       sodipodi:start="0.014717413"
       sodipodi:end="6.2822674"
       d="M 5.0275392,3.8932526 A 1.0944741,1.2403764 0 0 1 3.9213542,5.115302 1.0944741,1.2403764 0 0 1 2.8387356,3.8664399 1.0944741,1.2403764 0 0 1 3.9364572,2.6346273 1.0944741,1.2403764 0 0 1 5.0276573,3.8738595 l -1.0944736,0.00114 z" />
    <path
       style="opacity:0.82399998;fill:#000000;fill-opacity:1;stroke:#000000;stroke-width:1.36144102"
       id="path4561-8"
       sodipodi:type="arc"
       sodipodi:cx="3.8706837"
       sodipodi:cy="12.562498"
       sodipodi:rx="1.0944741"
       sodipodi:ry="1.2403764"
       sodipodi:start="0.014717413"
       sodipodi:end="6.2822674"
       d="M 4.9650392,12.580753 A 1.0944741,1.2403764 0 0 1 3.8588542,13.802802 1.0944741,1.2403764 0 0 1 2.7762356,12.55394 1.0944741,1.2403764 0 0 1 3.8739572,11.322127 1.0944741,1.2403764 0 0 1 4.9651573,12.56136 l -1.0944736,0.0011 z" />
    <path
       style="opacity:0.82399998;fill:#000000;fill-opacity:1;stroke:#000000;stroke-width:1.36144102"
       id="path4561-85"
       sodipodi:type="arc"
       sodipodi:cx="11.933184"
       sodipodi:cy="12.624998"
       sodipodi:rx="1.0944741"
       sodipodi:ry="1.2403764"
       sodipodi:start="0.014717413"
       sodipodi:end="6.2822674"
       d="m 13.027539,12.643253 a 1.0944741,1.2403764 0 0 1 -1.106185,1.222049 1.0944741,1.2403764 0 0 1 -1.082618,-1.248862 1.0944741,1.2403764 0 0 1 1.097721,-1.231813 1.0944741,1.2403764 0 0 1 1.0912,1.239233 l -1.094473,0.0011 z" />
    <path
       style="opacity:0.82399998;fill:#000000;fill-opacity:1;stroke:#000000;stroke-width:1.36144102"
       id="path4561-4"
       sodipodi:type="arc"
       sodipodi:cx="11.808184"
       sodipodi:cy="8.4374981"
       sodipodi:rx="1.0944741"
       sodipodi:ry="1.2403764"
       sodipodi:start="0.014717413"
       sodipodi:end="6.2822674"
       d="m 12.902539,8.4557526 a 1.0944741,1.2403764 0 0 1 -1.106185,1.2220494 1.0944741,1.2403764 0 0 1 -1.082618,-1.2488621 1.0944741,1.2403764 0 0 1 1.097721,-1.2318126 1.0944741,1.2403764 0 0 1 1.0912,1.2392322 l -1.094473,0.00114 z" />
    <path
       style="opacity:0.82399998;fill:#000000;fill-opacity:1;stroke:#000000;stroke-width:1.36144102"
       id="path4561-0"
       sodipodi:type="arc"
       sodipodi:cx="3.9331837"
       sodipodi:cy="8.3124981"
       sodipodi:rx="1.0944741"
       sodipodi:ry="1.2403764"
       sodipodi:start="0.014717413"
       sodipodi:end="6.2822674"
       d="M 5.0275392,8.3307526 A 1.0944741,1.2403764 0 0 1 3.9213542,9.552802 1.0944741,1.2403764 0 0 1 2.8387356,8.3039399 1.0944741,1.2403764 0 0 1 3.9364572,7.0721273 1.0944741,1.2403764 0 0 1 5.0276573,8.3113595 l -1.0944736,0.00114 z" />
  </g>
</svg>
