<?xml version="1.0" encoding="UTF-8" standalone="no"?>
<!-- Created with Inkscape (http://www.inkscape.org/) -->

<svg
   xmlns:osb="http://www.openswatchbook.org/uri/2009/osb"
   xmlns:dc="http://purl.org/dc/elements/1.1/"
   xmlns:cc="http://creativecommons.org/ns#"
   xmlns:rdf="http://www.w3.org/1999/02/22-rdf-syntax-ns#"
   xmlns:svg="http://www.w3.org/2000/svg"
   xmlns="http://www.w3.org/2000/svg"
   xmlns:xlink="http://www.w3.org/1999/xlink"
   xmlns:sodipodi="http://sodipodi.sourceforge.net/DTD/sodipodi-0.dtd"
   xmlns:inkscape="http://www.inkscape.org/namespaces/inkscape"
   width="16px"
   height="16px"
   viewBox="0 0 16 16"
   version="1.1"
   id="SVGRoot"
   inkscape:version="0.92.4 (5da689c313, 2019-01-14)"
   sodipodi:docname="icon.svg">
  <defs
     id="defs3721">
    <linearGradient
       id="linearGradient4551"
       osb:paint="solid">
      <stop
         style="stop-color:#000000;stop-opacity:1;"
         offset="0"
         id="stop4549" />
    </linearGradient>
    <linearGradient
       inkscape:collect="always"
       xlink:href="#linearGradient4551"
       id="linearGradient4553"
       x1="0.625"
       y1="8.03125"
       x2="15.5"
       y2="8.03125"
       gradientUnits="userSpaceOnUse"
       gradientTransform="matrix(0.99159664,0,0,0.9958159,0.12920168,0.00261506)" />
  </defs>
  <sodipodi:namedview
     id="base"
     pagecolor="#ffffff"
     bordercolor="#666666"
     borderopacity="1.0"
     inkscape:pageopacity="0.0"
     inkscape:pageshadow="2"
     inkscape:zoom="16"
     inkscape:cx="8"
     inkscape:cy="8"
     inkscape:document-units="px"
     inkscape:current-layer="layer1"
     showgrid="false"
     inkscape:window-width="1920"
     inkscape:window-height="1017"
     inkscape:window-x="-8"
     inkscape:window-y="-8"
     inkscape:window-maximized="1"
     inkscape:grid-bbox="true" />
  <metadata
     id="metadata3724">
    <rdf:RDF>
      <cc:Work
         rdf:about="">
        <dc:format>image/svg+xml</dc:format>
        <dc:type
           rdf:resource="http://purl.org/dc/dcmitype/StillImage" />
        <dc:title></dc:title>
      </cc:Work>
    </rdf:RDF>
  </metadata>
  <g
     inkscape:label="Layer 1"
     inkscape:groupmode="layer"
     id="layer1">
    <rect
       style="opacity:0;fill:#ffffff;stroke:#000000"
       id="rect3736"
       width="14.875"
       height="14.9375"
       x="0.625"
       y="0.5625"
       ry="0.4375" />
    <rect
       style="opacity:0;fill:#ffffff;stroke:#000000"
       id="rect3738"
       width="5.75"
       height="1.0625"
       x="0.625"
       y="0.5625"
       ry="0.4375" />
    <rect
       style="fill:none;fill-rule:evenodd;stroke:url(#linearGradient4553);stroke-width:0.99370402"
       id="rect3742"
       width="14.75"
       height="14.875"
       x="0.625"
       y="0.625"
       ry="2.3028243" />
    <ellipse
       style="opacity:0;fill:#000000;stroke:#000000;fill-opacity:1"
       id="path4555"
       cx="7.875"
       cy="7.96875"
       rx="1.3125"
       ry="1.21875" />
    <ellipse
       style="opacity:0;fill:#000000;fill-opacity:1;stroke:#000000"
       id="path4557"
       cx="7.5625"
       cy="7.46875"
       rx="1.375"
       ry="0.96875" />
    <ellipse
       style="opacity:0;fill:#000000;fill-opacity:1;stroke:#000000"
       id="path4559"
       cx="-7.96875"
       cy="8.375"
       rx="3.09375"
       ry="2.1875" />
    <path
       style="opacity:0.82399998;fill:#000000;fill-opacity:1;stroke:#000000;stroke-width:1.36144102"
       id="path4561"
       sodipodi:type="arc"
       sodipodi:cx="11.794054"
       sodipodi:cy="4.1274233"
       sodipodi:rx="1.0944741"
       sodipodi:ry="1.2403764"
       sodipodi:start="0.014717413"
       sodipodi:end="6.2822674"
       d="m 12.88841,4.1456778 a 1.0944741,1.2403764 0 0 1 -1.106185,1.2220494 1.0944741,1.2403764 0 0 1 -1.082619,-1.2488621 1.0944741,1.2403764 0 0 1 1.097722,-1.2318126 1.0944741,1.2403764 0 0 1 1.0912,1.2392322 l -1.094474,0.00114 z" />
    <path
       style="opacity:0.82399998;fill:#000000;fill-opacity:1;stroke:#000000;stroke-width:1.36144102"
       id="path4561-7"
       sodipodi:type="arc"
       sodipodi:cx="3.9331837"
       sodipodi:cy="3.8749981"
       sodipodi:rx="1.0944741"
       sodipodi:ry="1.2403764"
       sodipodi:start="0.014717413"
       sodipodi:end="6.2822674"
       d="M 5.0275392,3.8932526 A 1.0944741,1.2403764 0 0 1 3.9213542,5.115302 1.0944741,1.2403764 0 0 1 2.8387356,3.8664399 1.0944741,1.2403764 0 0 1 3.9364572,2.6346273 1.0944741,1.2403764 0 0 1 5.0276573,3.8738595 l -1.0944736,0.00114 z" />
    <path
       style="opacity:0.82399998;fill:#000000;fill-opacity:1;stroke:#000000;stroke-width:1.36144102"
       id="path4561-8"
       sodipodi:type="arc"
       sodipodi:cx="3.8706837"
       sodipodi:cy="12.562498"
       sodipodi:rx="1.0944741"
       sodipodi:ry="1.2403764"
       sodipodi:start="0.014717413"
       sodipodi:end="6.2822674"
       d="M 4.9650392,12.580753 A 1.0944741,1.2403764 0 0 1 3.8588542,13.802802 1.0944741,1.2403764 0 0 1 2.7762356,12.55394 1.0944741,1.2403764 0 0 1 3.8739572,11.322127 1.0944741,1.2403764 0 0 1 4.9651573,12.56136 l -1.0944736,0.0011 z" />
    <path
       style="opacity:0.82399998;fill:#000000;fill-opacity:1;stroke:#000000;stroke-width:1.36144102"
       id="path4561-85"
       sodipodi:type="arc"
       sodipodi:cx="11.933184"
       sodipodi:cy="12.624998"
       sodipodi:rx="1.0944741"
       sodipodi:ry="1.2403764"
       sodipodi:start="0.014717413"
       sodipodi:end="6.2822674"
       d="m 13.027539,12.643253 a 1.0944741,1.2403764 0 0 1 -1.106185,1.222049 1.0944741,1.2403764 0 0 1 -1.082618,-1.248862 1.0944741,1.2403764 0 0 1 1.097721,-1.231813 1.0944741,1.2403764 0 0 1 1.0912,1.239233 l -1.094473,0.0011 z" />
    <path
       style="opacity:0.82399998;fill:#000000;fill-opacity:1;stroke:#000000;stroke-width:1.36144102"
       id="path4561-4"
       sodipodi:type="arc"
       sodipodi:cx="11.808184"
       sodipodi:cy="8.4374981"
       sodipodi:rx="1.0944741"
       sodipodi:ry="1.2403764"
       sodipodi:start="0.014717413"
       sodipodi:end="6.2822674"
       d="m 12.902539,8.4557526 a 1.0944741,1.2403764 0 0 1 -1.106185,1.2220494 1.0944741,1.2403764 0 0 1 -1.082618,-1.2488621 1.0944741,1.2403764 0 0 1 1.097721,-1.2318126 1.0944741,1.2403764 0 0 1 1.0912,1.2392322 l -1.094473,0.00114 z" />
    <path
       style="opacity:0.82399998;fill:#000000;fill-opacity:1;stroke:#000000;stroke-width:1.36144102"
       id="path4561-0"
       sodipodi:type="arc"
       sodipodi:cx="3.9331837"
       sodipodi:cy="8.3124981"
       sodipodi:rx="1.0944741"
       sodipodi:ry="1.2403764"
       sodipodi:start="0.014717413"
       sodipodi:end="6.2822674"
       d="M 5.0275392,8.3307526 A 1.0944741,1.2403764 0 0 1 3.9213542,9.552802 1.0944741,1.2403764 0 0 1 2.8387356,8.3039399 1.0944741,1.2403764 0 0 1 3.9364572,7.0721273 1.0944741,1.2403764 0 0 1 5.0276573,8.3113595 l -1.0944736,0.00114 z" />
    <path
       style="opacity:0.82399998;fill:#ffffff;fill-opacity:1;stroke:none;stroke-width:0.0625"
       d="M 2.3662659,14.877015 C 1.9730526,14.755954 1.4924976,14.312816 1.3053628,13.898714 L 1.15625,13.56875 1.1386111,8.23438 C 1.1191645,2.3533056 1.1155969,2.4155422 1.5023138,1.8896888 1.7208267,1.5925574 2.1083932,1.3153777 2.4304181,1.2259274 c 0.3079366,-0.085537 10.8312269,-0.085537 11.1391639,0 0.507067,0.1408503 1.003927,0.6241742 1.18768,1.1553226 0.07109,0.2054825 0.08649,1.2238207 0.08649,5.71875 v 5.46875 l -0.149112,0.329964 c -0.194976,0.431452 -0.665931,0.856858 -1.087054,0.981918 -0.461605,0.137082 -10.7951166,0.133757 -11.2413181,-0.0036 z M 12.625,14.403082 c 0.337512,-0.146388 0.64206,-0.426875 0.855008,-0.787457 C 13.566286,13.469531 13.66233,13.35 13.693439,13.35 c 0.03111,0 0.05656,-0.309375 0.05656,-0.6875 0,-0.378125 -0.02385,-0.6875 -0.05301,-0.6875 -0.02915,0 -0.104589,-0.114387 -0.167633,-0.254193 -0.35001,-0.776185 -1.249605,-1.203011 -2.046965,-0.971213 -0.513805,0.149368 -0.848575,0.433723 -1.107394,0.940626 -0.196762,0.385364 -0.218745,0.479318 -0.2187,0.934729 4.1e-5,0.416375 0.02904,0.567355 0.1633,0.850051 0.449969,0.947484 1.389049,1.325528 2.3054,0.928082 z m -8.0625,-0.0625 C 4.9000121,14.194194 5.2045602,13.913707 5.4175084,13.553125 5.5037866,13.407031 5.5998302,13.2875 5.6309389,13.2875 c 0.031109,0 0.056561,-0.309375 0.056561,-0.6875 0,-0.378125 -0.023854,-0.6875 -0.053008,-0.6875 -0.029154,0 -0.1045891,-0.114387 -0.1676329,-0.254193 C 5.1168484,10.882122 4.2172536,10.455296 3.4198941,10.687094 2.9060896,10.836462 2.5713189,11.120817 2.3125,11.62772 c -0.1967622,0.385364 -0.218745,0.479318 -0.2187002,0.934729 4.09e-5,0.416375 0.029045,0.567355 0.1633,0.850051 0.4499695,0.947484 1.3890488,1.325528 2.3054002,0.928082 z m 7.9375,-4.125 C 12.837512,10.069194 13.14206,9.7887075 13.355008,9.428125 13.441286,9.2820312 13.53733,9.1625 13.568439,9.1625 c 0.03111,0 0.05656,-0.309375 0.05656,-0.6875 0,-0.378125 -0.02385,-0.6875 -0.05301,-0.6875 -0.02915,0 -0.104589,-0.1143869 -0.167633,-0.2541931 C 13.054349,6.7571218 12.154754,6.3302959 11.357394,6.5620946 10.843589,6.7114616 10.508819,6.9958174 10.25,7.50272 c -0.196762,0.3853637 -0.218745,0.4793181 -0.2187,0.9347287 4.1e-5,0.416375 0.02904,0.5673557 0.1633,0.8500513 0.449969,0.947484 1.389049,1.325528 2.3054,0.928082 z m -7.875,-0.125 C 4.9625121,9.9441944 5.2670602,9.6637075 5.4800084,9.303125 5.5662866,9.1570312 5.6623302,9.0375 5.6934389,9.0375 5.7245475,9.0375 5.75,8.728125 5.75,8.35 5.75,7.971875 5.7261464,7.6625 5.6969921,7.6625 5.6678378,7.6625 5.592403,7.5481131 5.5293592,7.4083069 5.1793484,6.6321218 4.2797536,6.2052959 3.4823941,6.4370946 2.9685896,6.5864616 2.6338189,6.8708174 2.375,7.37772 2.1782378,7.7630837 2.156255,7.8570381 2.1562998,8.3124487 2.1563407,8.7288237 2.185345,8.8798044 2.3195998,9.1625 2.7695693,10.109984 3.7086486,10.488028 4.625,10.090582 Z M 12.5,5.9030825 C 12.845548,5.7532096 13.156954,5.4623559 13.326373,5.13125 13.396728,4.99375 13.48567,4.8611865 13.524021,4.8366644 13.609377,4.7820869 13.643011,3.475 13.55906,3.475 13.5275,3.475 13.461258,3.3782609 13.411855,3.2600242 13.280096,2.9446812 12.849353,2.5064577 12.512774,2.3453298 12.070988,2.1338369 11.510448,2.142581 11.05115,2.3681303 10.425062,2.6755855 10.067773,3.2305354 10.014244,3.9786782 9.9087769,5.4527141 11.212073,6.4616901 12.5,5.9030825 Z m -7.875,-0.25 C 4.9625121,5.5066947 5.2670602,5.2262077 5.4800084,4.865625 5.5662866,4.7195312 5.6623302,4.6 5.6934389,4.6 5.7245475,4.6 5.75,4.290625 5.75,3.9125 5.75,3.534375 5.7261464,3.225 5.6969921,3.225 5.6678378,3.225 5.592403,3.1106132 5.5293592,2.9708071 5.1793484,2.1946218 4.2797536,1.7677959 3.4823941,1.9995946 2.9685896,2.1489616 2.6338189,2.4333174 2.375,2.9402202 2.1782378,3.3255835 2.156255,3.4195384 2.1562998,3.8749486 2.1563407,4.2913241 2.185345,4.4423046 2.3195998,4.725 2.7695693,5.6724839 3.7086486,6.0505281 4.625,5.6530825 Z"
       id="path50"
       inkscape:connector-curvature="0" />
  </g>
</svg>
